# xmcd CD database file
#
# Track frame offsets:
#	150
#	13093
#	26043
#	37783
#	48388
#	63436
#	75251
#	86917
#	100836
#	113533
#	125869
#	138020
#	149817
#	169166
#	183909
#	194618
#	206753
#	221441
#	235052
#	248216
#	265598
#	277028
#	289058
#	301783
#	316963
#	331966
#
# Disc length: 4593 seconds
#
# Revision: 0
# Processed by: cddbd v1.5.2PL0 Copyright (c) Steve Scherf et al.
# Submitted via: CDex 1.51
#
DISCID=7711ef1a
DTITLE=Django Reinhardt - Plays Django Reinhardt (Disk 3, 1942-1947)
DYEAR=2007
DGENRE=Jazz
TTITLE0=Blues en Mineur
TTITLE1=Place de Brouckere
TTITLE2=Django Rag
TTITLE3=Douce Ambiance
TTITLE4=Manoir de Mes Reves
TTITLE5=Cavalerie
TTITLE6=Fleur D'ennui
TTITLE7=Blues Clair
TTITLE8=Improvisation No 3
TTITLE9=Oubli
TTITLE10=Gaiement
TTITLE11=Blues D'autrefois
TTITLE12=Artillerie Lourde
TTITLE13=Manoir De Mes Reves
TTITLE14=Improvisation No 6
TTITLE15=Django's Tiger
TTITLE16=Love's Melody
TTITLE17=Belleville
TTITLE18=Swingtime in Springtime
TTITLE19=A Blues Riff
TTITLE20=R-Vingt-Six
TTITLE21=Blues
TTITLE22=Minor Blues
TTITLE23=Porto Cabello
TTITLE24=Duke and Dukie
TTITLE25=Babik (bi-bob)
EXTD=YEAR: 2007
EXTT0=
EXTT1=
EXTT2=
EXTT3=
EXTT4=
EXTT5=
EXTT6=
EXTT7=
EXTT8=
EXTT9=
EXTT10=
EXTT11=
EXTT12=
EXTT13=
EXTT14=
EXTT15=
EXTT16=
EXTT17=
EXTT18=
EXTT19=
EXTT20=
EXTT21=
EXTT22=
EXTT23=
EXTT24=
EXTT25=
PLAYORDER=
